<svg width="98" height="86" viewBox="0 0 98 86" fill="none" xmlns="http://www.w3.org/2000/svg">
<g clip-path="url(#clip0)">
<path d="M75.7794 64.1547H2.81481C1.26027 64.1547 0 62.8946 0 61.3401L0 17.2543C0 15.6997 1.26027 14.4395 2.81481 14.4395L75.7795 14.4395C77.3341 14.4395 78.5943 15.6997 78.5943 17.2543V61.3399C78.5942 62.8946 77.3339 64.1547 75.7794 64.1547Z" fill="#C1D15D"/>
<path d="M51.9695 63.7H1.9304C0.864293 63.7 0 62.458 0 60.9259L0 17.4743C0 15.9421 0.864293 14.7 1.9304 14.7L51.9696 14.7C53.0357 14.7 53.9 15.9421 53.9 17.4743L39.8125 37.975L46.55 60.9259C46.5499 62.4582 53.0356 63.7 51.9695 63.7Z" fill="white" fill-opacity="0.5"/>
<path d="M75.7794 14.4396H71.1881V64.1549H75.7794C77.334 64.1549 78.5942 62.8946 78.5942 61.34V17.2542C78.5942 15.6997 77.334 14.4396 75.7794 14.4396Z" fill="#B5BF4C"/>
<path d="M78.5942 21.4753L0 21.4753L0 29.9671L78.5942 29.9671V21.4753Z" fill="#1785B8"/>
<path d="M78.5941 21.4753H71.1876V29.9671H78.5941V21.4753Z" fill="#0A7693"/>
<path d="M5.43158 40.0932L5.43158 55.8724C5.43158 56.3985 5.85801 56.8251 6.38423 56.8251H42.5993C43.7152 56.8251 44.6198 55.9205 44.6198 54.8045V49.3433C44.6198 48.2379 44.1019 47.1964 43.2206 46.5292L36.1217 41.1556C34.3945 39.8482 32.2876 39.1407 30.1214 39.1407H6.38407C5.85801 39.1406 5.43158 39.5672 5.43158 40.0932Z" fill="#E2EFFA"/>
<path d="M43.2203 46.5292L36.1214 41.1556C34.3942 39.8482 32.2873 39.1407 30.1211 39.1407H25.9744L35.7353 46.5294C36.6166 47.1965 37.1345 48.238 37.1345 49.3434V51.4722C37.1345 52.6163 36.207 53.5439 35.0628 53.5439H5.43158V55.8727C5.43158 56.3988 5.85801 56.8254 6.38423 56.8254H35.1139H42.5991C43.7151 56.8254 44.6197 55.9208 44.6197 54.8048V51.5235V49.3437C44.6197 48.2379 44.1018 47.1965 43.2203 46.5292Z" fill="#CEE2F1"/>
<path d="M17.9217 43.4002H13.1645V51.0538H17.9217V43.4002Z" fill="#B5E7FE"/>
<path d="M24.7033 43.3997H20.2942V51.0533H24.7033C25.3104 51.0533 25.8027 50.561 25.8027 49.9539V44.4991C25.8027 43.892 25.3106 43.3997 24.7033 43.3997Z" fill="#B5E7FE"/>
<path d="M10.7928 43.4016H5.43555V51.0551H10.7928V43.4016Z" fill="#B5E7FE"/>
<path d="M44.6197 49.3432C44.6197 48.2378 44.1017 47.1963 43.2205 46.5291L39.0863 43.3997H32.123C31.5675 43.3997 31.1171 43.85 31.1171 44.4056V50.0473C31.1171 50.6028 31.5675 51.0532 32.123 51.0532H44.6197V49.3432Z" fill="#B5E7FE"/>
<path d="M43.2204 46.5291L39.0861 43.3997H32.123C31.9778 43.3997 31.8402 43.431 31.7156 43.4864L35.7354 46.5291C36.6167 47.1963 37.1346 48.2378 37.1346 49.3432V51.0532H44.6198V49.3432C44.6198 48.2378 44.1018 47.1964 43.2204 46.5291Z" fill="#9AD8ED"/>
<path d="M55.0581 42.2855H70.3711C71.0262 42.2855 71.557 41.7546 71.557 41.0996C71.557 40.4445 71.0261 39.9136 70.3711 39.9136H55.0581C54.4029 39.9136 53.8721 40.4445 53.8721 41.0996C53.8721 41.7546 54.4029 42.2855 55.0581 42.2855Z" fill="white"/>
<path d="M55.0581 56.0521H70.3711C71.0262 56.0521 71.557 55.5212 71.557 54.8661C71.557 54.211 71.0261 53.6802 70.3711 53.6802H55.0581C54.4029 53.6802 53.8721 54.2111 53.8721 54.8661C53.8721 55.5212 54.4029 56.0521 55.0581 56.0521Z" fill="white"/>
<path d="M55.0581 49.1688H70.3711C71.0262 49.1688 71.557 48.6379 71.557 47.9829C71.557 47.3278 71.0261 46.7969 70.3711 46.7969H55.0581C54.4029 46.7969 53.8721 47.3278 53.8721 47.9829C53.8721 48.6379 54.4029 49.1688 55.0581 49.1688Z" fill="white"/>
</g>
<g clip-path="url(#clip1)">
<path d="M88.8432 62.2433C101.053 50.0336 101.052 30.1668 88.8432 17.9571C76.6335 5.74738 56.7669 5.74738 44.5575 17.9571C34.1992 28.3154 32.6304 43.7208 39.847 55.7508C39.847 55.7508 40.3653 56.6204 39.6652 57.32C35.6712 61.3138 23.6885 73.2967 23.6885 73.2967C20.5085 76.4765 19.7514 80.923 22.5715 83.7435L23.057 84.2286C25.8771 87.0491 30.3238 86.2923 33.5036 83.1123C33.5036 83.1123 45.4609 71.1547 49.4467 67.1691C50.1804 66.4355 51.0498 66.9538 51.0498 66.9538C63.0795 74.1701 78.485 72.6016 88.8432 62.2433ZM50.3388 56.4618C41.317 47.4401 41.3173 32.7609 50.339 23.7391C59.3607 14.7176 74.04 14.7174 83.0614 23.7391C92.0832 32.7606 92.0832 47.4401 83.0614 56.4618C74.0397 65.483 59.3607 65.483 50.3388 56.4618Z" fill="#F4C22B"/>
<path d="M52.3369 38.242C51.917 38.242 51.4901 38.1594 51.0787 37.9857C49.4351 37.29 48.6661 35.3936 49.3617 33.7498C53.7339 23.4176 65.6965 18.5688 76.0284 22.941C77.672 23.6366 78.441 25.533 77.7453 27.1769C77.0495 28.8207 75.1535 29.5892 73.5092 28.8938C66.46 25.9109 58.2974 29.2193 55.3148 36.2685C54.793 37.5014 53.5961 38.242 52.3369 38.242Z" fill="#F4C22B"/>
</g>
<defs>
<clipPath id="clip0">
<rect width="78.5943" height="78.5943" fill="white"/>
</clipPath>
<clipPath id="clip1">
<rect width="77.175" height="77.175" fill="white" transform="translate(20.825 8.80005)"/>
</clipPath>
</defs>
</svg>
