<svg width="107" height="109" viewBox="0 0 107 109" fill="none" xmlns="http://www.w3.org/2000/svg">
<path d="M70 87.1361C66.7458 87.1361 60 88.9648 56.5805 89.956C56.1267 85.1299 49.9984 83.4215 43.6655 82.1234C40.7748 81.5321 38.6231 80.4859 36.5431 79.4724C33.978 78.2241 31.5561 77.0449 28.3334 77.0449C24.6431 77.0449 21.28 77.8066 19.3822 78.3336C18.8805 76.572 17.4572 75.1522 15.5664 74.7717L1.99219 72.0325C1.50719 71.934 0.996094 72.0621 0.60875 72.3806C0.224687 72.7009 0 73.1772 0 73.6814V100.591C0 101.521 0.745469 102.273 1.66672 102.273H12.1094C14.1675 102.273 15.9214 100.952 16.6755 99.0969C20.4102 100.893 37.6689 109 45 109C51.4648 109 64.7755 102.397 73.5808 98.0287C75.8758 96.8905 77.7734 95.9477 79.0039 95.4041C79.6094 95.1348 80 94.5303 80 93.8635C80 89.902 75.8887 87.1361 70 87.1361ZM16.237 79.9571L13.7598 97.4653C13.6427 98.2882 12.933 98.909 12.1094 98.909H3.33328V75.7328L14.9153 78.0699C15.7812 78.2457 16.3639 79.0735 16.237 79.9571ZM72.1094 95.0099C64.0983 98.9845 50.6902 105.636 45 105.636C38.9388 105.636 23.0175 98.4738 17.3958 95.7145C17.3895 95.7114 17.3825 95.7125 17.3763 95.7097L19.3373 81.8496C20.5517 81.4663 24.262 80.4088 28.3333 80.4088C30.7942 80.4088 32.692 81.3336 35.0977 82.5029C37.2559 83.5541 39.7038 84.7448 43.0013 85.4214C50.2441 86.9029 53.3333 88.422 53.3333 90.4997C53.3333 90.9103 53.2095 91.1632 52.8937 91.4014C51.8358 92.2013 47.6952 93.5448 32.1417 88.8869C31.253 88.6273 30.3319 89.1316 30.0681 90.0218C29.8077 90.912 30.3091 91.8481 31.1912 92.1125C38.8703 94.4087 44.7394 95.5534 48.8995 95.5534C51.6111 95.5534 53.6 95.0673 54.8859 94.0965C54.9966 94.0131 55.0777 93.9111 55.1783 93.8214C55.2831 93.8097 55.3862 93.822 55.4914 93.7894C58.4375 92.8747 66.7872 90.4999 70 90.4999C72.7181 90.4999 75.5794 91.3325 76.4192 92.8977C75.2572 93.4496 73.7891 94.1788 72.1094 95.0099Z" fill="#F4C22B"/>
<g clip-path="url(#clip0)">
<path d="M97.1624 40.1729L53.2376 80.4016C52.3017 81.2587 50.8483 81.195 49.9912 80.2592L25.6846 53.7194C24.8275 52.7836 24.8914 51.3301 25.8272 50.473L69.7521 10.2441C70.6879 9.38702 72.1415 9.45086 72.9986 10.3867L97.305 36.9263C98.1621 37.8623 98.0982 39.3158 97.1624 40.1729Z" fill="#C1D15D"/>
<path d="M69.7521 10.2445L66.9882 12.7759L94.3985 42.7046L97.1625 40.1731C98.0983 39.3161 98.1622 37.8625 97.3051 36.9267L72.9985 10.387C72.1414 9.45113 70.688 9.38738 69.7521 10.2445Z" fill="#B5BF4C"/>
<path d="M75.3258 12.9281L28.012 56.2607L32.6939 61.3729L80.0078 18.0402L75.3258 12.9281Z" fill="#1785B8"/>
<path d="M75.3258 12.9281L70.8671 17.0117L75.549 22.1238L80.0078 18.0402L75.3258 12.9281Z" fill="#0A7693"/>
<path d="M41.5468 64.4738L50.2466 73.9729C50.5366 74.2896 51.0285 74.3113 51.3453 74.0212L73.1468 54.0541C73.8186 53.4388 73.8645 52.3955 73.2492 51.7237L70.2381 48.436C69.6287 47.7706 68.7426 47.4291 67.8443 47.5134L60.608 48.1925C58.8474 48.3577 57.189 49.0934 55.8849 50.2878L41.595 63.3752C41.2782 63.6652 41.2567 64.1571 41.5468 64.4738Z" fill="#E2EFFA"/>
<path d="M67.8441 47.5136L60.6078 48.1926C58.8472 48.3579 57.1888 49.0936 55.8847 50.2879L53.3884 52.5742L63.3382 51.6405C64.2365 51.5562 65.1226 51.8977 65.732 52.5631L66.9057 53.8446C67.5365 54.5334 67.4896 55.6032 66.8008 56.234L48.9627 72.5711L50.2467 73.9731C50.5368 74.2898 51.0287 74.3115 51.3455 74.0213L68.6408 58.1813L73.1469 54.0544C73.8187 53.4391 73.8645 52.3958 73.2492 51.7239L71.4401 49.7486L70.2383 48.4364C69.6286 47.7706 68.7426 47.4293 67.8441 47.5136Z" fill="#CEE2F1"/>
<path d="M50.889 59.5783L48.0251 62.2012L52.2449 66.8086L55.1088 64.1857L50.889 59.5783Z" fill="#B5E7FE"/>
<path d="M54.9713 55.8391L52.317 58.27L56.5368 62.8775L59.1911 60.4465C59.5566 60.1118 59.5815 59.544 59.2468 59.1785L56.2393 55.8948C55.9046 55.5293 55.3369 55.5043 54.9713 55.8391Z" fill="#B5E7FE"/>
<path d="M46.5984 63.5101L43.3733 66.4639L47.5931 71.0713L50.8182 68.1176L46.5984 63.5101Z" fill="#B5E7FE"/>
<path d="M70.2379 48.4362C69.6284 47.7707 68.7424 47.4293 67.8441 47.5135L63.6299 47.909L59.438 51.7481C59.1035 52.0544 59.0807 52.5739 59.387 52.9083L62.4976 56.3046C62.8038 56.6391 63.3233 56.6619 63.6577 56.3556L71.1807 49.4656L70.2379 48.4362Z" fill="#B5E7FE"/>
<path d="M67.8441 47.5139L63.6298 47.9094L59.438 51.7485C59.3506 51.8286 59.285 51.9233 59.2406 52.0254L63.3381 51.6408C64.2365 51.5565 65.1225 51.898 65.7319 52.5634L66.6748 53.5928L71.1809 49.4659L70.238 48.4365C69.6286 47.771 68.7426 47.4297 67.8441 47.5139Z" fill="#9AD8ED"/>
<path d="M72.6307 38.4322L81.8492 29.9895C82.2436 29.6283 82.2704 29.016 81.9092 28.6216C81.5481 28.2273 80.9357 28.2004 80.5414 28.5616L71.323 37.0043C70.9286 37.3655 70.9018 37.9779 71.2629 38.3722C71.624 38.7665 72.2363 38.7935 72.6307 38.4322Z" fill="white"/>
<path d="M80.2209 46.7198L89.4394 38.2771C89.8338 37.9159 89.8606 37.3036 89.4994 36.9092C89.1382 36.5148 88.5259 36.488 88.1316 36.8492L78.9132 45.2919C78.5188 45.6531 78.492 46.2654 78.8531 46.6598C79.2142 47.0541 79.8265 47.0811 80.2209 46.7198Z" fill="white"/>
<path d="M76.4258 42.5758L85.6442 34.133C86.0386 33.7718 86.0654 33.1595 85.7043 32.7652C85.3431 32.3709 84.7308 32.344 84.3364 32.7051L75.118 41.1479C74.7236 41.5091 74.6968 42.1214 75.0579 42.5157C75.4191 42.91 76.0314 42.937 76.4258 42.5758Z" fill="white"/>
</g>
<defs>
<clipPath id="clip0">
<rect width="64.1586" height="64.1586" fill="white" transform="translate(16.1716 43.3325) rotate(-42.4852)"/>
</clipPath>
</defs>
</svg>
