<svg width="100" height="100" viewBox="0 0 100 100" fill="none" xmlns="http://www.w3.org/2000/svg">
<circle cx="50" cy="50" r="45" fill="#F9DDDF"/>
<path d="M50 5C25.16 5 5 25.16 5 50C5 74.84 25.16 95 50 95C74.84 95 95 74.84 95 50C95 25.16 74.84 5 50 5ZM27.815 78.26C29.75 74.21 41.54 70.25 50 70.25C58.46 70.25 70.295 74.21 72.185 78.26C66.065 83.12 58.37 86 50 86C41.63 86 33.935 83.12 27.815 78.26ZM78.62 71.735C72.185 63.905 56.57 61.25 50 61.25C43.43 61.25 27.815 63.905 21.38 71.735C16.79 65.705 14 58.19 14 50C14 30.155 30.155 14 50 14C69.845 14 86 30.155 86 50C86 58.19 83.21 65.705 78.62 71.735V71.735ZM50 23C41.27 23 34.25 30.02 34.25 38.75C34.25 47.48 41.27 54.5 50 54.5C58.73 54.5 65.75 47.48 65.75 38.75C65.75 30.02 58.73 23 50 23ZM50 45.5C46.265 45.5 43.25 42.485 43.25 38.75C43.25 35.015 46.265 32 50 32C53.735 32 56.75 35.015 56.75 38.75C56.75 42.485 53.735 45.5 50 45.5Z" fill="#E25361"/>
</svg>
